<svg width="274" height="299" viewBox="0 0 274 299" fill="none" xmlns="http://www.w3.org/2000/svg">
<path d="M211.067 297.786C203.326 285.61 195.433 276.482 179.026 265.745H216.407C219.767 277.781 223.005 286.785 229.758 297.786H211.067Z" fill="#E0B77B"/>
<path d="M179.026 265.745C195.433 276.482 203.326 285.61 211.067 297.786M179.026 265.745C195.433 276.482 203.326 285.61 211.067 297.786H229.758C223.005 286.785 219.767 277.781 216.407 265.745H179.026Z" stroke="#2F231B"/>
<path d="M101.594 297.786C109.336 285.61 117.228 276.482 133.635 265.745H96.2541C92.8941 277.781 89.6561 286.785 82.9037 297.786H101.594Z" fill="#E0B77B"/>
<path d="M133.635 265.745C117.228 276.482 109.336 285.61 101.594 297.786M133.635 265.745C117.228 276.482 109.336 285.61 101.594 297.786H82.9037C89.6561 286.785 92.8941 277.781 96.2541 265.745H133.635Z" stroke="#2F231B"/>
<path d="M101.594 192.515C38.8475 191.18 38.8475 199.97 38.8475 155.134H28.1673C28.1672 208.536 30.8373 204.531 101.594 203.195V192.515Z" fill="#44403C" stroke="#2F231B"/>
<path d="M69.7755 127.251C69.7755 146.381 54.2676 161.889 35.1377 161.889C16.0078 161.889 0.5 146.381 0.5 127.251C0.5 108.121 16.0078 92.6136 35.1377 92.6136C54.2676 92.6136 69.7755 108.121 69.7755 127.251Z" fill="#D9D9D9" fill-opacity="0.5"/>
<path d="M69.7755 127.251C69.7755 146.381 54.2676 161.889 35.1377 161.889C16.0078 161.889 0.5 146.381 0.5 127.251C0.5 108.121 16.0078 92.6136 35.1377 92.6136C54.2676 92.6136 69.7755 108.121 69.7755 127.251Z" fill="#D9D9D9" fill-opacity="0.5"/>
<path d="M69.7755 127.251C69.7755 146.381 54.2676 161.889 35.1377 161.889C16.0078 161.889 0.5 146.381 0.5 127.251C0.5 108.121 16.0078 92.6136 35.1377 92.6136C54.2676 92.6136 69.7755 108.121 69.7755 127.251Z" fill="#D9D9D9" fill-opacity="0.5"/>
<path d="M69.7755 127.251C69.7755 146.381 54.2676 161.889 35.1377 161.889C16.0078 161.889 0.5 146.381 0.5 127.251C0.5 108.121 16.0078 92.6136 35.1377 92.6136C54.2676 92.6136 69.7755 108.121 69.7755 127.251Z" fill="#818568"/>
<path d="M69.7755 127.251C69.7755 146.381 54.2676 161.889 35.1377 161.889C16.0078 161.889 0.5 146.381 0.5 127.251C0.5 108.121 16.0078 92.6136 35.1377 92.6136C54.2676 92.6136 69.7755 108.121 69.7755 127.251Z" stroke="#2F231B"/>
<circle cx="35.1378" cy="127.252" r="23.8261" fill="#D9D9D9" fill-opacity="0.5"/>
<circle cx="35.1378" cy="127.252" r="23.8261" fill="#D9D9D9" fill-opacity="0.5"/>
<circle cx="35.1378" cy="127.252" r="23.8261" fill="#D9D9D9" fill-opacity="0.5"/>
<circle cx="35.1378" cy="127.252" r="23.8261" fill="#566155"/>
<circle cx="35.1378" cy="127.252" r="23.8261" stroke="#2F231B"/>
<path d="M48.1523 127.503C48.1523 134.691 42.3255 140.518 35.1378 140.518C27.9501 140.518 22.1233 134.691 22.1233 127.503C22.1233 120.316 27.9501 114.489 35.1378 114.489C42.3255 114.489 48.1523 120.316 48.1523 127.503Z" fill="#D9D9D9" fill-opacity="0.5"/>
<path d="M48.1523 127.503C48.1523 134.691 42.3255 140.518 35.1378 140.518C27.9501 140.518 22.1233 134.691 22.1233 127.503C22.1233 120.316 27.9501 114.489 35.1378 114.489C42.3255 114.489 48.1523 120.316 48.1523 127.503Z" fill="#D9D9D9" fill-opacity="0.5"/>
<path d="M48.1523 127.503C48.1523 134.691 42.3255 140.518 35.1378 140.518C27.9501 140.518 22.1233 134.691 22.1233 127.503C22.1233 120.316 27.9501 114.489 35.1378 114.489C42.3255 114.489 48.1523 120.316 48.1523 127.503Z" fill="#D9D9D9" fill-opacity="0.5"/>
<path d="M48.1523 127.503C48.1523 134.691 42.3255 140.518 35.1378 140.518C27.9501 140.518 22.1233 134.691 22.1233 127.503C22.1233 120.316 27.9501 114.489 35.1378 114.489C42.3255 114.489 48.1523 120.316 48.1523 127.503Z" fill="#E0B77B"/>
<path d="M48.1523 127.503C48.1523 134.691 42.3255 140.518 35.1378 140.518C27.9501 140.518 22.1233 134.691 22.1233 127.503C22.1233 120.316 27.9501 114.489 35.1378 114.489C42.3255 114.489 48.1523 120.316 48.1523 127.503Z" stroke="#2F231B"/>
<path d="M121.12 95.1884C121.12 103.069 115.323 109.374 108.269 109.374C101.216 109.374 95.4189 103.069 95.4189 95.1884C95.4189 87.3081 101.216 81.003 108.269 81.003C115.323 81.003 121.12 87.3081 121.12 95.1884Z" fill="#8F9474" stroke="#3B382D"/>
<path d="M121.12 127.164C121.12 135.044 115.323 141.349 108.269 141.349C101.216 141.349 95.4189 135.044 95.4189 127.164C95.4189 119.283 101.216 112.978 108.269 112.978C115.323 112.978 121.12 119.283 121.12 127.164Z" fill="#8F9474" stroke="#3B382D"/>
<path d="M199.552 67.5188C202.069 67.6264 204.57 68.546 206.933 70.2584C209.455 72.0863 211.765 74.7804 213.722 78.2048C215.678 81.6282 217.236 85.703 218.3 90.1992C219.364 94.6948 219.913 99.5169 219.913 104.389C219.913 109.261 219.364 114.084 218.3 118.579C217.236 123.075 215.678 127.15 213.722 130.573C211.765 133.998 209.455 136.692 206.933 138.52C204.57 140.232 202.069 141.152 199.552 141.26L199.552 104.389V67.5188Z" fill="#8F9474" stroke="#3B382D"/>
<rect x="146.457" y="11.7781" width="20.6232" height="53.0581" rx="5.5" fill="#E0B77B" stroke="#4F412E"/>
<rect x="135.645" y="38.8071" width="42.2464" height="26.029" fill="#8F9474" stroke="#2F231B"/>
<rect x="108.769" y="48.9622" width="95.1227" height="137.844" rx="24.5" fill="#8C5F43" stroke="#483B2E"/>
<path d="M209.732 256.597V173.824H102.929V256.597H209.732Z" fill="#E0B77B" stroke="#2F231B"/>
<path d="M210.341 181.835C171.603 197.378 164.263 214.536 172.96 257.932H210.341V181.835Z" fill="#8C5F43" stroke="#2F231B"/>
<path d="M102.929 181.835C141.668 197.378 149.007 214.536 140.31 257.932H102.929V181.835Z" fill="#8C5F43" stroke="#2F231B"/>
<rect x="76.7286" y="175.995" width="28.3708" height="159.204" rx="10.5" transform="rotate(-90 76.7286 175.995)" fill="#5D402E" stroke="#2F231B"/>
<rect x="140.814" y="129.201" width="33.711" height="33.711" rx="6.02528" transform="rotate(-0.485337 140.814 129.201)" fill="#55615B" stroke="#3A2B20"/>
<rect x="146.151" y="134.273" width="23.0307" height="23.0307" rx="4" fill="#818568" stroke="#424135"/>
<rect x="151.991" y="140.114" width="11.3504" height="11.3504" rx="1" fill="#8C5F43" stroke="#483A2C" stroke-width="2"/>
<path d="M142.068 82.1147C145.852 83.0634 149.707 80.8379 150.778 77.086C152.498 71.0591 161.039 71.0591 162.759 77.086C163.83 80.8379 167.684 83.0634 171.469 82.1147C177.548 80.5908 181.819 87.9877 177.46 92.4907C174.746 95.2939 174.746 99.7449 177.46 102.548C181.819 107.051 177.548 114.448 171.469 112.924C167.684 111.975 163.83 114.201 162.759 117.953C161.039 123.98 152.498 123.98 150.778 117.953C149.707 114.201 145.852 111.975 142.068 112.924C135.988 114.448 131.718 107.051 136.077 102.548C138.791 99.7449 138.791 95.2939 136.077 92.4907C131.718 87.9877 135.988 80.5908 142.068 82.1147Z" fill="#8F9474" stroke="#3B382D" stroke-linejoin="bevel"/>
<path d="M170.053 97.5698C170.053 104.758 164.226 110.584 157.038 110.584C149.851 110.584 144.024 104.758 144.024 97.5698C144.024 90.3821 149.851 84.5553 157.038 84.5553C164.226 84.5553 170.053 90.3821 170.053 97.5698Z" fill="#D9D9D9" fill-opacity="0.5"/>
<path d="M170.053 97.5698C170.053 104.758 164.226 110.584 157.038 110.584C149.851 110.584 144.024 104.758 144.024 97.5698C144.024 90.3821 149.851 84.5553 157.038 84.5553C164.226 84.5553 170.053 90.3821 170.053 97.5698Z" fill="#D9D9D9" fill-opacity="0.5"/>
<path d="M170.053 97.5698C170.053 104.758 164.226 110.584 157.038 110.584C149.851 110.584 144.024 104.758 144.024 97.5698C144.024 90.3821 149.851 84.5553 157.038 84.5553C164.226 84.5553 170.053 90.3821 170.053 97.5698Z" fill="#D9D9D9" fill-opacity="0.5"/>
<path d="M170.053 97.5698C170.053 104.758 164.226 110.584 157.038 110.584C149.851 110.584 144.024 104.758 144.024 97.5698C144.024 90.3821 149.851 84.5553 157.038 84.5553C164.226 84.5553 170.053 90.3821 170.053 97.5698Z" fill="#E0B77B"/>
<path d="M170.053 97.5698C170.053 104.758 164.226 110.584 157.038 110.584C149.851 110.584 144.024 104.758 144.024 97.5698C144.024 90.3821 149.851 84.5553 157.038 84.5553C164.226 84.5553 170.053 90.3821 170.053 97.5698Z" stroke="#2F231B"/>
<rect x="76.1813" y="270.005" width="36.8406" height="161.174" rx="10.5" transform="rotate(-90 76.1813 270.005)" fill="#5D402E" stroke="#2F231B"/>
<path d="M116.231 251.848C116.231 259.036 110.405 264.863 103.217 264.863C96.0292 264.863 90.2024 259.036 90.2024 251.848C90.2024 244.661 96.0292 238.834 103.217 238.834C110.405 238.834 116.231 244.661 116.231 251.848Z" fill="#D9D9D9" fill-opacity="0.5"/>
<path d="M116.231 251.848C116.231 259.036 110.405 264.863 103.217 264.863C96.0292 264.863 90.2024 259.036 90.2024 251.848C90.2024 244.661 96.0292 238.834 103.217 238.834C110.405 238.834 116.231 244.661 116.231 251.848Z" fill="#D9D9D9" fill-opacity="0.5"/>
<path d="M116.231 251.848C116.231 259.036 110.405 264.863 103.217 264.863C96.0292 264.863 90.2024 259.036 90.2024 251.848C90.2024 244.661 96.0292 238.834 103.217 238.834C110.405 238.834 116.231 244.661 116.231 251.848Z" fill="#D9D9D9" fill-opacity="0.5"/>
<path d="M116.231 251.848C116.231 259.036 110.405 264.863 103.217 264.863C96.0292 264.863 90.2024 259.036 90.2024 251.848C90.2024 244.661 96.0292 238.834 103.217 238.834C110.405 238.834 116.231 244.661 116.231 251.848Z" fill="#E0B77B"/>
<path d="M116.231 251.848C116.231 259.036 110.405 264.863 103.217 264.863C96.0292 264.863 90.2024 259.036 90.2024 251.848C90.2024 244.661 96.0292 238.834 103.217 238.834C110.405 238.834 116.231 244.661 116.231 251.848Z" stroke="#2F231B"/>
<path d="M152.112 251.848C152.112 259.036 146.286 264.863 139.098 264.863C131.91 264.863 126.083 259.036 126.083 251.848C126.083 244.661 131.91 238.834 139.098 238.834C146.286 238.834 152.112 244.661 152.112 251.848Z" fill="#D9D9D9" fill-opacity="0.5"/>
<path d="M152.112 251.848C152.112 259.036 146.286 264.863 139.098 264.863C131.91 264.863 126.083 259.036 126.083 251.848C126.083 244.661 131.91 238.834 139.098 238.834C146.286 238.834 152.112 244.661 152.112 251.848Z" fill="#D9D9D9" fill-opacity="0.5"/>
<path d="M152.112 251.848C152.112 259.036 146.286 264.863 139.098 264.863C131.91 264.863 126.083 259.036 126.083 251.848C126.083 244.661 131.91 238.834 139.098 238.834C146.286 238.834 152.112 244.661 152.112 251.848Z" fill="#D9D9D9" fill-opacity="0.5"/>
<path d="M152.112 251.848C152.112 259.036 146.286 264.863 139.098 264.863C131.91 264.863 126.083 259.036 126.083 251.848C126.083 244.661 131.91 238.834 139.098 238.834C146.286 238.834 152.112 244.661 152.112 251.848Z" fill="#E0B77B"/>
<path d="M152.112 251.848C152.112 259.036 146.286 264.863 139.098 264.863C131.91 264.863 126.083 259.036 126.083 251.848C126.083 244.661 131.91 238.834 139.098 238.834C146.286 238.834 152.112 244.661 152.112 251.848Z" stroke="#2F231B"/>
<path d="M223.874 251.848C223.874 259.036 218.048 264.863 210.86 264.863C203.672 264.863 197.845 259.036 197.845 251.848C197.845 244.661 203.672 238.834 210.86 238.834C218.048 238.834 223.874 244.661 223.874 251.848Z" fill="#D9D9D9" fill-opacity="0.5"/>
<path d="M223.874 251.848C223.874 259.036 218.048 264.863 210.86 264.863C203.672 264.863 197.845 259.036 197.845 251.848C197.845 244.661 203.672 238.834 210.86 238.834C218.048 238.834 223.874 244.661 223.874 251.848Z" fill="#D9D9D9" fill-opacity="0.5"/>
<path d="M223.874 251.848C223.874 259.036 218.048 264.863 210.86 264.863C203.672 264.863 197.845 259.036 197.845 251.848C197.845 244.661 203.672 238.834 210.86 238.834C218.048 238.834 223.874 244.661 223.874 251.848Z" fill="#D9D9D9" fill-opacity="0.5"/>
<path d="M223.874 251.848C223.874 259.036 218.048 264.863 210.86 264.863C203.672 264.863 197.845 259.036 197.845 251.848C197.845 244.661 203.672 238.834 210.86 238.834C218.048 238.834 223.874 244.661 223.874 251.848Z" fill="#E0B77B"/>
<path d="M223.874 251.848C223.874 259.036 218.048 264.863 210.86 264.863C203.672 264.863 197.845 259.036 197.845 251.848C197.845 244.661 203.672 238.834 210.86 238.834C218.048 238.834 223.874 244.661 223.874 251.848Z" stroke="#2F231B"/>
<path d="M187.993 251.848C187.993 259.036 182.167 264.863 174.979 264.863C167.791 264.863 161.964 259.036 161.964 251.848C161.964 244.661 167.791 238.834 174.979 238.834C182.167 238.834 187.993 244.661 187.993 251.848Z" fill="#D9D9D9" fill-opacity="0.5"/>
<path d="M187.993 251.848C187.993 259.036 182.167 264.863 174.979 264.863C167.791 264.863 161.964 259.036 161.964 251.848C161.964 244.661 167.791 238.834 174.979 238.834C182.167 238.834 187.993 244.661 187.993 251.848Z" fill="#D9D9D9" fill-opacity="0.5"/>
<path d="M187.993 251.848C187.993 259.036 182.167 264.863 174.979 264.863C167.791 264.863 161.964 259.036 161.964 251.848C161.964 244.661 167.791 238.834 174.979 238.834C182.167 238.834 187.993 244.661 187.993 251.848Z" fill="#D9D9D9" fill-opacity="0.5"/>
<path d="M187.993 251.848C187.993 259.036 182.167 264.863 174.979 264.863C167.791 264.863 161.964 259.036 161.964 251.848C161.964 244.661 167.791 238.834 174.979 238.834C182.167 238.834 187.993 244.661 187.993 251.848Z" fill="#E0B77B"/>
<path d="M187.993 251.848C187.993 259.036 182.167 264.863 174.979 264.863C167.791 264.863 161.964 259.036 161.964 251.848C161.964 244.661 167.791 238.834 174.979 238.834C182.167 238.834 187.993 244.661 187.993 251.848Z" stroke="#2F231B"/>
</svg>
